Coordinates
version=1
nRows=20
nColumns=34
inDegrees=yes

Units are S.I. units (second, meters, Newtons, ...)
If the header above contains a line with 'inDegrees', this indicates whether rotational values are in degrees (yes) or radians (no).

endheader
time	pelvis_tilt	pelvis_list	pelvis_rotation	pelvis_tx	pelvis_ty	pelvis_tz	hip_flexion_r	hip_adduction_r	hip_rotation_r	knee_angle_r	ankle_angle_r	subtalar_angle_r	mtp_angle_r	hip_flexion_l	hip_adduction_l	hip_rotation_l	knee_angle_l	ankle_angle_l	subtalar_angle_l	mtp_angle_l	lumbar_extension	lumbar_bending	lumbar_rotation	arm_flex_r	arm_add_r	arm_rot_r	elbow_flex_r	pro_sup_r	arm_flex_l	arm_add_l	arm_rot_l	elbow_flex_l	pro_sup_l
      3.36666670	     -6.94802158	      3.68384616	     -0.80278621	      1.83303283	      0.87897994	     -0.22693590	     16.81583799	    -15.63919274	    -10.71069481	     37.87300873	     23.09415492	      3.87928407	      0.00000000	     15.45424167	     -3.81197788	     -5.83294201	     34.78491093	     20.97692260	      3.45393037	      0.00000000	     -5.81649636	     -0.60977285	      5.27271323	     59.94660407	      4.61902778	      9.84072160	    121.50216949	     97.74256574	     84.53761763	     -0.24959144	     35.39779700	    104.18044105	     93.16810980
      3.38333330	     -7.19432149	      3.73079547	     -0.37926897	      1.83953366	      0.89604029	     -0.22353548	     14.25439936	    -14.77449964	    -12.06639237	     33.17865376	     19.70950351	      3.15920408	      0.00000000	     12.69822062	     -3.33833379	     -4.80355533	     29.03214239	     16.85745352	      3.54792497	      0.00000000	     -5.02384302	     -1.19105336	      6.13072629	     65.02053510	      4.87457106	      8.11616384	    118.80092598	     97.25766391	     88.82577476	      1.16418576	     35.60088625	    102.02030834	     93.28391853
      3.40000000	     -7.40103419	      3.72271464	      0.11636151	      1.84602566	      0.90845688	     -0.22053928	     11.82857826	    -13.78811817	    -13.45823277	     28.64241886	     15.99279336	      2.33165480	      0.00000000	     10.21379771	     -3.13350109	     -3.73916893	     23.76320328	     12.63950772	      3.85489050	      0.00000000	     -4.42556713	     -1.72842519	      7.12151336	     70.79428795	      4.68129867	      6.57663854	    114.94594799	     96.56626948	     93.42213991	      2.78608843	     35.38952326	     99.56864105	     93.41640366
      3.41666670	     -7.71788458	      3.67312281	      0.68287996	      1.85232369	      0.91512052	     -0.21800272	      9.82763150	    -12.81970343	    -14.78922700	     24.58584511	     12.45427368	      1.40662714	      0.00000000	      8.37827408	     -3.14597779	     -2.77260687	     19.41116147	      8.69751688	      4.35995569	      0.00000000	     -3.53269898	     -2.19724524	      8.07303136	     77.93213016	      3.81525212	      5.33781755	    108.63378804	     96.00215966	     98.05025028	      4.32034288	     34.91368560	     96.66652851	     93.50567142
      3.43333330	     -8.20448575	      3.61276436	      1.27130808	      1.85768377	      0.91843680	     -0.21512609	      8.46941807	    -11.95770836	    -16.00793881	     21.27506650	      9.11835942	      0.52513573	      0.00000000	      7.27492347	     -3.30319975	     -2.11869749	     16.01013220	      5.19197428	      4.62548514	      0.00000000	     -2.58364354	     -2.90730827	      8.61173509	     86.05130556	      1.90618864	      4.97472952	    100.27997809	     95.60207212	    103.52796684	      5.70427404	     33.60792264	     93.14400640	     93.50699428
      3.45000000	     -8.33673452	      3.49417785	      1.81817829	      1.86185160	      0.92509178	     -0.21156231	      6.75818852	    -10.96171616	    -16.88509046	     17.83368976	      5.83353663	     -0.34176850	      0.00000000	      6.07957339	     -3.52553861	     -1.34573752	     13.01173677	      1.30049239	      4.56959101	      0.00000000	     -2.29239213	     -3.39273925	      8.71445178	     94.96975398	     -0.82977673	      6.84631436	     89.82674781	     94.78772253	    109.08140792	      5.94258118	     32.34699038	     90.16073141	     93.52667673
      3.46666670	     -9.06098448	      3.36413270	      2.32274821	      1.86604251	      0.93283980	     -0.20775889	      5.99953958	    -10.04228567	    -17.47599456	     14.84619682	      2.65146922	     -0.89230626	      0.00000000	      5.87997539	     -3.77117359	     -0.81922365	     10.60039663	     -2.25188708	      4.64149269	      0.00000000	     -1.17229051	     -4.21411123	      8.56885693	    102.68885389	     -4.74690535	      9.07913156	     78.95455046	     94.64067856	    114.36450562	      6.86662590	     30.75361938	     85.40459529	     93.45914233
      3.48333330	     -9.34638875	      3.25390823	      2.70288226	      1.87047866	      0.94075082	     -0.20504194	      4.80717251	     -9.17253526	    -17.97362490	     11.80434109	     -0.94282471	     -1.28722980	      0.00000000	      5.34383399	     -3.95997595	     -0.52583926	      8.40979200	     -6.21829947	      4.40070839	      0.00000000	     -0.86785394	     -4.83984434	      8.87054368	    111.88627924	     -9.78324401	     13.91665212	     67.24048373	     94.35609273	    119.09761627	      7.63051994	     29.51688336	     82.06018828	     93.53259852
      3.50000000	     -9.84560630	      3.19940388	      3.06122937	      1.87552698	      0.94579987	     -0.20406021	      4.00114474	     -8.51682976	    -18.38155283	      9.11055378	     -4.50954035	     -1.56145570	      0.00000000	      5.22178674	     -3.99909812	     -0.52377154	      6.63875563	     -9.90006872	      4.09013433	      0.00000000	     -0.24904131	     -5.71786920	      9.35056801	    120.86848187	    -13.89506024	     18.39755219	     54.92943226	     94.14021964	    123.85608227	      8.87038523	     29.04337031	     77.58481067	     93.74381711
      3.51666670	    -10.43809544	      3.06704152	      3.32778313	      1.88083316	      0.94930705	     -0.20379607	      3.58499380	     -7.96979296	    -18.59652140	      7.01089191	     -7.90527670	     -1.85766737	      0.00000000	      5.34914386	     -4.02625369	     -0.76811246	      5.27594318	    -13.18718564	      3.42184148	      0.00000000	      0.54589081	     -6.60328158	     10.12510817	    128.78390397	    -16.11757047	     19.88692325	     42.62878499	     93.86803820	    128.26268970	     10.15833813	     29.11906596	     73.08780908	     93.93590181
      3.53333330	    -10.81827810	      3.11716884	      3.62839942	      1.88639324	      0.95424861	     -0.20322456	      3.04633363	     -7.77230734	    -18.58808806	      5.23845999	    -11.43864006	     -1.94769638	      0.00000000	      5.38260520	     -3.72847664	     -0.90381613	      4.29091466	    -16.00256425	      2.74670904	      0.00000000	      0.91050299	     -7.41043922	     11.09206914	    136.67568716	    -16.56434527	     21.81908824	     30.72874924	     93.17240105	    132.01014082	     10.27715113	     30.31658350	     71.04711135	     94.07558007
      3.55000000	    -11.36080244	      3.06685958	      3.92555285	      1.89275798	      0.95824517	     -0.20198416	      2.81357200	     -7.57395463	    -18.44343997	      3.80863761	    -14.59506536	     -2.09249447	      0.00000000	      5.52129173	     -3.47631555	     -1.38618851	      3.36343368	    -18.44677836	      1.99670451	      0.00000000	      1.38986645	     -7.99949666	     11.78980848	    143.52342510	    -15.25475783	     23.22790250	     21.06510658	     91.60953010	    135.47536540	      9.86350517	     32.26296554	     70.06738864	     93.83164330
      3.56666670	    -11.92665354	      3.04230823	      4.17838471	      1.89949320	      0.95895311	     -0.20125742	      2.71164317	     -7.51588418	    -17.73468841	      2.75545670	    -17.45040518	     -2.41380961	      0.00000000	      5.69363417	     -3.13853703	     -2.00432334	      2.74863240	    -20.55275939	      0.98146252	      0.00000000	      1.88263355	     -8.52449825	     11.95997151	    148.71857623	    -13.06744266	     24.27984911	     14.52979980	     89.97028549	    138.60986690	      8.91998032	     33.92454619	     69.66999125	     93.48328269
      3.58333330	    -12.41736621	      3.07693830	      4.70766484	      1.90603900	      0.95809856	     -0.20236710	      2.55906407	     -7.71863171	    -17.38417090	      2.12532193	    -19.82087238	     -2.38505290	      0.00000000	      5.88560323	     -2.65711021	     -2.60574068	      2.46253699	    -21.96455981	      0.49721173	      0.00000000	      2.00412480	     -8.74494063	     12.34637581	    155.33899026	     -9.69971335	     56.48107414	      5.63609763	     50.41469515	    140.96892046	      7.53999717	     35.68213728	     71.35499889	     87.34635121
      3.60000000	    -12.83940733	      3.12332897	      5.20633564	      1.91315599	      0.95707270	     -0.20407002	      2.44047914	     -8.04496259	    -16.48602988	      1.91434525	    -21.62955992	     -2.68612393	      0.00000000	      6.01113147	     -2.11847720	     -3.29269396	      2.37905099	    -23.09396752	     -0.48662981	      0.00000000	      2.34767482	     -9.06305802	     12.24481912	    157.82787638	     -7.26519357	     56.35939109	      6.73123847	     50.29861142	    142.13352554	      6.82711411	     35.49890211	     72.63196284	     87.61557585
      3.61666670	    -13.00513203	      3.09645342	      5.69068174	      1.92157686	      0.95608510	     -0.20547208	      2.05494579	     -8.28730467	    -15.64763445	      1.93962383	    -23.09156838	     -3.01827467	      0.00000000	      5.74316049	     -1.67355773	     -4.00939244	      2.25170848	    -23.70841654	     -1.44249174	      0.00000000	      2.50570820	     -9.12584226	     11.98948580	    159.48730016	     -4.73123033	     56.26707813	      9.09944969	     50.36960713	    142.83831291	      5.51233739	     35.77547475	     74.27829603	     88.05634855
      3.63333330	    -13.05209968	      3.00304352	      6.10267863	      1.93027249	      0.95570625	     -0.20665564	      1.58190852	     -8.42661347	    -14.92150609	      2.20002393	    -23.84119984	     -3.16754084	      0.00000000	      5.25570482	     -1.30119858	     -4.86712125	      2.13458345	    -23.88136617	     -2.38556435	      0.00000000	      2.62791052	     -8.99931319	     11.81606925	    160.43239801	     -2.49833259	     56.00113792	     12.34674976	     50.70028053	    142.75529117	      3.79146907	     36.23087924	     76.46613179	     88.65349511
      3.65000000	    -13.05236458	      2.85287737	      6.47819599	      1.93854700	      0.95414049	     -0.20766511	      1.06367251	     -8.47026671	    -14.36216571	      2.66124262	    -23.90636530	     -3.15572339	      0.00000000	      4.60202592	     -0.97083519	     -5.83007766	      2.01840299	    -23.48243798	     -3.33803523	      0.00000000	      2.74858289	     -8.76144683	     11.55212219	    160.83789757	     -0.60894745	     55.39126142	     15.61914710	     51.33685072	    141.91676256	      1.86388567	     36.73038582	     79.17344324	     89.39354843
      3.66666670	    -13.34628574	      2.65799859	      6.74380515	      1.94656334	      0.95163334	     -0.20827364	      0.93134173	     -8.48056575	    -13.78394882	      3.33199108	    -23.27781169	     -2.75294529	      0.00000000	      4.12385087	     -0.67846001	     -6.85549188	      1.86748941	    -22.61450136	     -4.28463026	      0.00000000	      3.58762862	     -8.67893922	     10.41967730	    158.70605395	      0.78259334	     44.57390625	     20.72077642	     59.09094049	    140.62901857	      0.07037347	     37.63162295	     81.39316205	     95.57551834
      3.68333330	    -12.98121936	      2.43836640	      7.01373202	      1.95423063	      0.94857384	     -0.20911281	     -0.10225867	     -8.30371277	    -13.49656906	      3.69878270	    -22.39999842	     -2.38210856	      0.00000000	      2.91847097	     -0.55684713	     -7.80076874	      1.74132905	    -21.46201662	     -5.03217282	      0.00000000	      3.05041712	     -8.34279097	      9.85996605	    159.20406434	      1.84768238	     45.43241006	     22.60899520	     60.34141861	    139.61507277	     -1.52590818	     37.78521067	     83.82663156	     95.71046366
